<?xml version="1.0" encoding="utf-8"?>
<!-- Generator: Adobe Illustrator 24.1.2, SVG Export Plug-In . SVG Version: 6.00 Build 0)  -->
<svg version="1.1" id="Calque_1" xmlns="http://www.w3.org/2000/svg" xmlns:xlink="http://www.w3.org/1999/xlink" x="0px" y="0px"
	 viewBox="0 0 391 49" style="enable-background:new 0 0 391 49;" xml:space="preserve">
<style type="text/css">
	.st0{fill:#C2D212;}
	.st1{fill:#0061A7;}
	.st2{fill:#FFFFFF;}
	.st3{fill:#EA5B0C;}
	.st4{fill:#A2185B;}
	.st5{fill:#222221;}
	.st6{fill:#1D1D1B;}
</style>
<g id="Groupe_129" transform="translate(0 -0.001)">
	<path id="Tracé_1" class="st0" d="M302,24.2c0,7.5-6.1,13.6-13.6,13.6c0,0,0,0,0,0c-7.5,0-13.6-6.1-13.6-13.6
		c0-7.5,6.1-13.6,13.6-13.6c0,0,0,0,0,0C295.9,10.6,302,16.7,302,24.2C302,24.2,302,24.2,302,24.2"/>
	<path id="Tracé_2" class="st1" d="M331.7,24.2c0,7.5-6.1,13.6-13.6,13.6c-7.5,0-13.6-6.1-13.7-13.6c0-7.5,6.1-13.6,13.6-13.6
		c0,0,0,0,0,0C325.5,10.6,331.7,16.7,331.7,24.2C331.7,24.2,331.7,24.2,331.7,24.2"/>
	<path id="Tracé_3" class="st2" d="M313.9,30.2c0.2-0.6,0.3-1.3,0.2-1.9c-0.6,0.2-1.2,0.6-1.6,1.1c-0.2,0.4-0.1,0.9,0.2,1.1
		c0,0,0,0,0,0l0,0l0,0C313.1,30.7,313.6,30.6,313.9,30.2C313.8,30.2,313.8,30.2,313.9,30.2"/>
	<path id="Tracé_4" class="st2" d="M313.1,32c-0.2,0.4-0.1,0.9,0.2,1.1c0,0,0,0,0,0l0,0l0,0c0.4,0.2,0.9,0.1,1.1-0.3c0,0,0,0,0,0
		c0.2-0.6,0.3-1.3,0.2-1.9C314.1,31.1,313.5,31.5,313.1,32"/>
	<path id="Tracé_5" class="st2" d="M319.7,21.1c-0.2-1.8-1.8-3.1-3.5-3.1c-1.2,0-2.3,0.5-3,1.4c0.7,0.2,1.2,0.8,1.4,1.5
		c-0.7-0.7-1.8-1.1-2.8-0.9c-1.5,0.2-2.6,1.6-2.5,3.2c0,1.6,1.2,3.2,3.5,3.4l3.8-6.5l-0.1,4.8h2.9l-1,1.7c1.4-0.1,3.6-0.5,3.6-2.8
		C322,22.5,321,21.3,319.7,21.1"/>
	<path id="Tracé_6" class="st2" d="M315.8,22.6l-2.7,4.7h2.5l0,6l2.4-7.7h-2.5L315.8,22.6z"/>
	<path id="Tracé_7" class="st2" d="M321,17.3c0.2,0,0.4-0.2,0.5-0.4c0,0,0,0,0,0c-0.1-0.6-0.3-1.1-0.5-1.7
		c-0.2,0.5-0.4,1.1-0.5,1.7C320.6,17.1,320.8,17.3,321,17.3C321,17.3,321,17.3,321,17.3"/>
	<path id="Tracé_8" class="st2" d="M319.2,17.8c0.2-0.1,0.3-0.4,0.2-0.6c0,0,0,0,0,0c-0.4-0.4-0.8-0.9-1.2-1.2
		c0.1,0.6,0.2,1.1,0.4,1.7C318.7,17.8,318.9,17.9,319.2,17.8C319.1,17.8,319.2,17.8,319.2,17.8"/>
	<path id="Tracé_9" class="st2" d="M322.9,24.2c-0.2,0.1-0.3,0.4-0.2,0.6c0,0,0,0,0,0c0.4,0.4,0.8,0.9,1.2,1.2
		c-0.1-0.6-0.2-1.1-0.4-1.7C323.4,24.2,323.1,24.1,322.9,24.2C322.9,24.2,322.9,24.2,322.9,24.2"/>
	<path id="Tracé_10" class="st2" d="M324.9,22.7c-0.2-0.1-0.5-0.1-0.6,0.1c0,0,0,0,0,0c-0.1,0.2-0.1,0.5,0.1,0.6c0,0,0,0,0,0
		c0.5,0.2,1.1,0.3,1.7,0.4C325.7,23.5,325.3,23,324.9,22.7"/>
	<path id="Tracé_11" class="st2" d="M324.7,21c0,0.2,0.2,0.4,0.4,0.5c0,0,0,0,0,0c0.6-0.1,1.1-0.3,1.7-0.5
		c-0.5-0.2-1.1-0.3-1.7-0.4C325,20.5,324.8,20.7,324.7,21C324.7,21,324.7,21,324.7,21"/>
	<path id="Tracé_12" class="st2" d="M324.9,19.3c0.4-0.4,0.9-0.8,1.2-1.2c-0.6,0.1-1.1,0.2-1.7,0.4c-0.2,0.1-0.3,0.4-0.2,0.6
		c0,0,0,0,0,0C324.4,19.3,324.6,19.4,324.9,19.3C324.8,19.3,324.9,19.3,324.9,19.3"/>
	<path id="Tracé_13" class="st2" d="M322.9,17.8c0.2,0.1,0.5,0.1,0.6-0.1c0,0,0,0,0,0c0.2-0.5,0.3-1.1,0.4-1.7
		c-0.4,0.4-0.9,0.8-1.2,1.2C322.6,17.3,322.7,17.6,322.9,17.8C322.9,17.7,322.9,17.8,322.9,17.8"/>
	<path id="Tracé_14" class="st2" d="M321,17.9c-0.7,0-1.5,0.3-2,0.7c0.5,0.6,0.9,1.2,1.2,2c1.4,0.4,2.3,1.7,2.4,3.1
		c1-0.6,1.6-1.6,1.6-2.7C324.2,19.3,322.8,17.9,321,17.9C321,17.9,321,17.9,321,17.9"/>
	<path id="Tracé_15" class="st3" d="M361.3,24.2c0,7.5-6.1,13.6-13.7,13.6c-7.5,0-13.6-6.1-13.6-13.6c0-7.5,6.1-13.6,13.6-13.6
		c0,0,0,0,0,0C355.2,10.6,361.3,16.7,361.3,24.2C361.3,24.2,361.3,24.2,361.3,24.2"/>
	<path id="Tracé_16" class="st2" d="M352.3,19.6L352.3,19.6c0.3,0.6,0.4,1.1,0.3,1.7c0,0.2,0,0.3,0,0.5c1.3-1.3,2.8-2.4,4.4-3.2
		c-1.2-0.9-2.9-1-4.3-0.3C352.2,19.2,352.3,19.6,352.3,19.6"/>
	<path id="Tracé_17" class="st2" d="M349,22.6C349,22.5,349,22.5,349,22.6c-0.6-0.6-0.9-1.3-0.9-2.1c0-0.2,0-0.4,0-0.5
		c-0.7-0.2-1.4-0.3-2.1-0.3c-0.2,0.1-0.4,0.3-0.5,0.4c-0.9,0.2-4.2,1-7,5.9c-0.1,0.1-0.1,0.3,0,0.5c0.1,0.2,0.4,0.3,0.6,0.1l0,0
		c0,0,3.7-3.7,7.6-3.7c0.5,0,1.6,0.2,2.2,0.2C349,23,349,22.8,349,22.6"/>
	<path id="Tracé_18" class="st2" d="M354.4,14.8c-2.7-0.3-5.1,1.7-5.3,4.4c0,0.4,0,0.8,0,1.2c0,0.6,0.3,1.2,0.8,1.5
		c0.4,0.3-0.1,2.3-0.5,2.6c-0.4,0.3-0.8,0.6-1.2,1c-2.8,2.8-2.7,7-2.8,7.8c0,0.1,0.1,0.3,0.2,0.3c0.2,0.1,0.4,0,0.5-0.1l0,0
		c0,0,2.4-5,4.6-6s0.7-5.5,1-6.4c0.1-0.3,0-0.7-0.2-1C351.4,20,350.4,18.6,354.4,14.8 M349.9,21.2c-0.2-0.2-0.2-0.6,0-0.9
		c0.2-0.2,0.7-0.2,0.9,0c0,0,0,0,0,0c0.2,0.2,0.2,0.7,0,0.9c0,0,0,0,0,0C350.5,21.4,350.1,21.4,349.9,21.2
		C349.9,21.2,349.9,21.2,349.9,21.2"/>
	<path id="Tracé_19" class="st4" d="M391,24.2c0,7.5-6.1,13.6-13.7,13.6c-7.5,0-13.6-6.1-13.7-13.6c0,0,0,0,0,0
		c0-7.5,6.1-13.6,13.6-13.6c0,0,0,0,0,0C384.9,10.6,391,16.7,391,24.2C391,24.2,391,24.2,391,24.2"/>
	<path id="Tracé_20" class="st2" d="M380.6,23.1c0,0,0,0.1,0,0.1c0,0,0,0,0,0c0.3,0.1,0.5,0.1,0.8,0.1v0.3c0,0.2,0,0.3-0.5,0.6
		c-0.1,0.1-0.4,0.3-0.7,0.4v0.5l0,0h0c0.1,0.1,0.2,0.1,0.3,0.2c1.6,0.7,3.1,1.5,4.6,2.4c0.4,0.4,0.6,0.9,0.8,1.4h1.1
		c0-1.2-0.1-3.1-0.5-3.5c-0.7-0.5-1.4-1-2.1-1.3c-0.5-0.2-0.5-0.4-0.5-0.6v-0.3c0.7-0.1,1.4-0.3,2-0.6c-1-0.4-1.2-1.8-1.2-3
		c0.1-1-0.7-1.9-1.8-2c-0.1,0-0.2,0-0.2,0c-0.4,0-0.8,0.1-1.1,0.3c0,0.1,0,0.2,0,0.3v0c0,0.3-0.1,0.7-0.1,1c0,0.1,0,0.1,0,0.2h0
		c0.4,0.6,0.6,1.3,0.4,1.9C381.6,22.2,381.2,22.7,380.6,23.1"/>
	<path id="Tracé_21" class="st2" d="M368.8,29c0.2-0.5,0.4-1,0.8-1.4c1.5-0.9,3-1.7,4.6-2.4c0.1,0,0.2-0.1,0.3-0.2h0l0,0v-0.5
		c-0.3-0.2-0.5-0.3-0.7-0.4c-0.5-0.3-0.5-0.4-0.5-0.6V23c0.1-0.1,0.2-0.3,0.2-0.4c-0.3-0.3-0.5-0.7-0.6-1.1c-0.1-0.7,0-1.4,0.4-1.9
		h0c0-0.1,0-0.2,0-0.3c0,0,0,0,0,0c0-0.4-0.1-0.8-0.1-1.2c-0.3-0.2-0.7-0.3-1.1-0.3c-0.6,0-1.1,0.2-1.6,0.4
		c-0.3,0.3-0.4,0.8-0.4,1.2c0,0.4,0,0.7,0.1,1.1c-0.2,0-0.3,0.4-0.2,0.8s0.4,0.7,0.6,0.7c0.1,0.3,0.2,0.7,0.3,1v0.6
		c0,0.2-0.1,0.3-0.5,0.6c-0.7,0.4-1.5,0.8-2.1,1.3c-0.4,0.4-0.5,2.3-0.5,3.5L368.8,29z"/>
	<path id="Tracé_22" class="st2" d="M374.8,22.4c0.1,0.6,0.2,1.2,0.5,1.8V25c0,0.3,0,0.7-0.9,1c-1.5,0.6-2.9,1.3-4.3,2.2
		c-0.7,0.7-0.9,3.6-0.9,4.8h16.1c0-1.2-0.2-4.2-0.9-4.8c-1.4-0.8-2.8-1.6-4.3-2.2c-0.9-0.4-0.9-0.7-0.9-1v-0.8
		c0.3-0.6,0.5-1.2,0.5-1.8c0.3,0.1,0.8-0.4,1-1.1s-0.1-1.3-0.4-1.4c0,0,0.1-1.5,0.1-2.2c0-1-0.3-1.7-1.2-1.7
		c-0.2-0.4-0.7-0.7-1.8-0.7c-1.2,0-1.7,0.7-2.8,0.7c-0.5,0-0.6,0.8-0.6,1.7c0,0.9,0.1,2.2,0.1,2.2c-0.3,0.1-0.6,0.7-0.4,1.4
		S374.5,22.5,374.8,22.4"/>
	<path id="Tracé_23" class="st2" d="M297.1,26.5l-3.4-2.4h-2.4v-0.8h1.4l2.4-4.2c0.1-0.2,0-0.4-0.2-0.5c0,0,0,0,0,0
		c-0.2-0.1-0.4,0-0.5,0.1c0,0,0,0,0,0l-2.1,3.8h-1c-0.2-0.9-0.8-1.7-1.6-2.1c0.1-1.8,0.7-3.5,1.7-4.9c0.1-0.2,0.1-0.4-0.1-0.5
		c-0.2-0.1-0.4-0.1-0.5,0.1c-1,1.5-1.7,3.3-1.8,5.1c-0.2,0-0.4-0.1-0.7-0.1c-0.2,0-0.4,0-0.7,0.1c-0.1-1.8-0.8-3.6-1.8-5.1
		c-0.1-0.2-0.3-0.2-0.5-0.1c0,0,0,0,0,0c-0.2,0.1-0.2,0.3-0.1,0.5c1,1.5,1.6,3.2,1.7,4.9c-0.8,0.4-1.4,1.2-1.6,2.1h-1l-2.1-3.8
		c-0.1-0.2-0.3-0.3-0.5-0.2c0,0,0,0,0,0c-0.2,0.1-0.3,0.3-0.2,0.5c0,0,0,0,0,0l2.4,4.2h1.4v0.8h-2.4l-3.4,2.4
		c-0.2,0.1-0.2,0.4-0.1,0.5c0,0,0,0,0,0c0.1,0.1,0.2,0.2,0.3,0.2c0.1,0,0.2,0,0.2-0.1l3.2-2.3h2.1v1h-1.6l-2.3,3.3V32
		c0,0.2,0.2,0.4,0.4,0.4l0,0c0.2,0,0.4-0.2,0.4-0.4c0,0,0,0,0,0v-2.7l1.9-2.8h1.2v2.1c0,1.7,1.4,3,3,3c1.7,0,3-1.4,3-3v-2.1h1.2
		l1.9,2.8V32c0,0.2,0.2,0.4,0.4,0.4c0,0,0,0,0,0c0.2,0,0.4-0.2,0.4-0.4c0,0,0,0,0,0v-2.9l-2.3-3.3h-1.6v-1h2.1l3.2,2.3
		c0.1,0,0.1,0.1,0.2,0.1c0.1,0,0.2-0.1,0.3-0.2C297.3,26.8,297.3,26.6,297.1,26.5C297.1,26.5,297.1,26.5,297.1,26.5"/>
	<path id="Tracé_27" class="st5" d="M38.3,10.9h3.1l4.9,6.3v-6.3h3.3v12h-2.9l-5.1-6.6v6.6h-3.3L38.3,10.9z"/>
	<path id="Tracé_28" class="st5" d="M58.1,10.9h1.3l7.5,9.6v-9.6h1.3v12h-1.1L59.4,13v9.8h-1.3L58.1,10.9z"/>
	<path id="Tracé_29" class="st5" d="M76.6,10.8h1.3l5.5,12h-1.5l-1.4-3.2h-6.5l-1.4,3.2h-1.4L76.6,10.8z M79.9,18.4l-2.7-6.1
		l-2.7,6.1H79.9z"/>
	<path id="Tracé_30" class="st5" d="M87.8,12.1h-4v-1.2h9.4v1.2h-4v10.7h-1.4L87.8,12.1z"/>
	<rect id="Rectangle_1" x="96.3" y="10.9" class="st5" width="1.4" height="12"/>
	<path id="Tracé_31" class="st5" d="M101.1,16.9L101.1,16.9c-0.1-3.4,2.6-6.1,5.9-6.2c0.1,0,0.1,0,0.2,0c3.3,0,6,2.6,6.1,5.9
		c0,0.1,0,0.2,0,0.2v0c0.1,3.3-2.6,6.1-5.9,6.2c-0.1,0-0.1,0-0.2,0c-3.3,0-6-2.6-6.1-5.9C101.1,17,101.1,16.9,101.1,16.9
		 M111.9,16.9L111.9,16.9c0.1-2.7-1.9-4.9-4.6-5c0,0-0.1,0-0.1,0c-2.6,0-4.7,2.1-4.7,4.7c0,0.1,0,0.1,0,0.2v0
		c-0.1,2.6,1.9,4.8,4.6,4.9c0,0,0.1,0,0.1,0c2.6,0,4.7-2.1,4.7-4.7C112,17,112,16.9,111.9,16.9"/>
	<path id="Tracé_32" class="st5" d="M116.7,10.9h1.3l7.5,9.6v-9.6h1.3v12h-1.1L118,13v9.8h-1.3L116.7,10.9z"/>
	<path id="Tracé_33" class="st5" d="M135.1,10.8h1.3l5.5,12h-1.5l-1.4-3.2h-6.5l-1.4,3.2h-1.4L135.1,10.8z M138.5,18.4l-2.7-6.1
		l-2.7,6.1H138.5z"/>
	<path id="Tracé_34" class="st5" d="M144.7,10.9h1.4v10.7h6.7v1.2h-8.1L144.7,10.9z"/>
	<path id="Tracé_38" class="st5" d="M33.2,27.4h8.3v2.4H36v1.6h4.9v2.2H36v1.6h5.5v2.4h-8.3V27.4z M37.9,24.3l2.7,0.8l-2.2,1.6
		h-2.1L37.9,24.3z"/>
	<path id="Tracé_39" class="st5" d="M43.4,27.4h4.8c1.2-0.1,2.4,0.3,3.3,1.1c0.6,0.6,1,1.5,0.9,2.4v0c0.1,1.4-0.8,2.7-2.1,3.2
		l2.4,3.6h-3.3l-2.1-3.1h-1.3v3.1h-2.8L43.4,27.4z M48.2,32.3c1,0,1.5-0.5,1.5-1.2v0c0-0.8-0.6-1.2-1.5-1.2h-1.9v2.5H48.2z"/>
	<rect id="Rectangle_2" x="54.5" y="27.4" class="st5" width="2.8" height="10.3"/>
	<path id="Tracé_40" class="st5" d="M58.9,36.1l1.6-1.9c0.9,0.8,2.1,1.2,3.3,1.2c0.8,0,1.2-0.3,1.2-0.7v0c0-0.4-0.3-0.7-1.7-1
		c-2.2-0.5-3.9-1.1-3.9-3.2v0c0-1.9,1.5-3.3,4-3.3c1.5-0.1,3,0.4,4.2,1.4l-1.4,2c-0.8-0.6-1.8-1-2.9-1c-0.7,0-1,0.3-1,0.7v0
		c0,0.5,0.4,0.7,1.8,1c2.3,0.5,3.8,1.3,3.8,3.2v0c0,2.1-1.7,3.3-4.1,3.3C61.9,37.9,60.2,37.2,58.9,36.1"/>
	<path id="Tracé_41" class="st5" d="M68.7,36.1l1.6-1.9c0.9,0.8,2.1,1.2,3.3,1.2c0.8,0,1.2-0.3,1.2-0.7v0c0-0.4-0.3-0.7-1.7-1
		c-2.2-0.5-3.9-1.1-3.9-3.2v0c0-1.9,1.5-3.3,4-3.3c1.5-0.1,3,0.4,4.2,1.4l-1.4,2c-0.8-0.6-1.8-1-2.9-1c-0.7,0-1,0.3-1,0.7v0
		c0,0.5,0.4,0.7,1.8,1c2.3,0.5,3.8,1.3,3.8,3.2v0c0,2.1-1.7,3.3-4.1,3.3C71.8,37.9,70.1,37.2,68.7,36.1"/>
	<path id="Tracé_42" class="st5" d="M79.5,27.4h8.3v2.4h-5.4v1.6h4.9v2.2h-4.9v1.6h5.5v2.4h-8.3V27.4z"/>
	<path id="Tracé_43" class="st5" d="M89.7,27.4h3l2.4,4l2.4-4h3v10.3h-2.8v-5.9l-2.6,4h-0.1l-2.6-4v5.9h-2.8L89.7,27.4z"/>
	<path id="Tracé_44" class="st5" d="M102.9,27.4h8.3v2.4h-5.4v1.6h4.9v2.2h-4.9v1.6h5.5v2.4h-8.3V27.4z"/>
	<path id="Tracé_45" class="st5" d="M113.1,27.4h2.7l4.2,5.4v-5.4h2.8v10.3h-2.5l-4.4-5.6v5.6h-2.8V27.4z"/>
	<path id="Tracé_46" class="st5" d="M127.6,29.9h-3.1v-2.5h9v2.5h-3.1v7.8h-2.8V29.9z"/>
	<path id="Tracé_47" class="st5" d="M140.2,27.4h3.6c2.8-0.2,5.3,1.9,5.4,4.8c0,0.1,0,0.2,0,0.3v0c0,2.8-2.3,5.1-5.1,5.1
		c-0.1,0-0.2,0-0.3,0h-3.6V27.4z M141.4,28.4v8.1h2.4c2.2,0.2,4.1-1.5,4.2-3.7c0-0.1,0-0.2,0-0.3v0c0-2.2-1.7-4-3.9-4.1
		c-0.1,0-0.2,0-0.3,0H141.4z"/>
	<path id="Tracé_48" class="st5" d="M151.9,33.3v-6h1.2v5.9c0,2.2,1.2,3.5,3.1,3.5c1.9,0,3.1-1.1,3.1-3.4v-6h1.2v5.9
		c0,3-1.7,4.5-4.3,4.5C153.7,37.8,151.9,36.2,151.9,33.3"/>
	<path id="Tracé_49" class="st5" d="M364.7,46.8v-1.4H184.6l-0.8,1.4l-0.4,0.7l-0.8,1.4h182.1v-1.4h26v-0.7H364.7z"/>
	<path id="Tracé_50" class="st5" d="M172.2,46.8l-0.8-1.4H97v1.4H0v0.7h97v1.4h76.4l-0.8-1.4L172.2,46.8z"/>
	<path id="Tracé_51" class="st5" d="M188.2,27.1l-10.4,20.7l-20.2-37.1h-1.1L177.4,49h0.8l11-22H188.2z"/>
	<path id="Tracé_52" class="st0" d="M168.6,13.5c0,1.4-1.2,2.6-2.6,2.6c-1.4,0-2.6-1.2-2.6-2.6s1.2-2.6,2.6-2.6
		C167.4,10.9,168.6,12.1,168.6,13.5"/>
	<path id="Tracé_53" class="st0" d="M174.5,13.5c0,1.4-1.2,2.6-2.6,2.6c-1.4,0-2.6-1.2-2.6-2.6c0,0,0,0,0,0c0-1.4,1.2-2.6,2.6-2.6
		c0,0,0,0,0,0C173.3,10.9,174.5,12.1,174.5,13.5"/>
	<path id="Tracé_54" class="st1" d="M180.3,13.5c0,1.4-1.2,2.6-2.6,2.6c-1.4,0-2.6-1.2-2.6-2.6c0,0,0,0,0,0c0-1.4,1.2-2.6,2.6-2.6
		c0,0,0,0,0,0C179.2,10.9,180.3,12.1,180.3,13.5"/>
	<path id="Tracé_55" class="st4" d="M192.1,13.5c0,1.4-1.2,2.6-2.6,2.6c0,0,0,0,0,0c-1.4,0-2.6-1.2-2.6-2.6c0,0,0,0,0,0
		c0-1.4,1.2-2.6,2.6-2.6C190.9,10.9,192.1,12.1,192.1,13.5"/>
	<path id="Tracé_56" class="st0" d="M174.5,23.3c0,1.4-1.2,2.6-2.6,2.6c-1.4,0-2.6-1.2-2.6-2.6c0,0,0,0,0,0c0-1.4,1.2-2.6,2.6-2.6
		c0,0,0,0,0,0C173.3,20.7,174.5,21.9,174.5,23.3"/>
	<path id="Tracé_57" class="st3" d="M180.3,23.3c0,1.4-1.2,2.6-2.6,2.6c-1.4,0-2.6-1.2-2.6-2.6c0,0,0,0,0,0c0-1.4,1.2-2.6,2.6-2.6
		c0,0,0,0,0,0C179.2,20.7,180.3,21.9,180.3,23.3"/>
	<path id="Tracé_58" class="st4" d="M180.3,33.4c0,1.4-1.2,2.6-2.6,2.6c-1.4,0-2.6-1.2-2.6-2.6c0,0,0,0,0,0c0-1.4,1.2-2.6,2.6-2.6
		c0,0,0,0,0,0C179.2,30.8,180.3,32,180.3,33.4"/>
	<path id="Tracé_59" class="st3" d="M186.2,13.5c0,1.4-1.2,2.6-2.6,2.6c-1.4,0-2.6-1.2-2.6-2.6c0,0,0,0,0,0c0-1.4,1.2-2.6,2.6-2.6
		c0,0,0,0,0,0C185,10.9,186.2,12.1,186.2,13.5"/>
	<path id="Tracé_60" class="st0" d="M171.6,18.3c0,1.4-1.2,2.6-2.6,2.6c-1.4,0-2.6-1.2-2.6-2.6s1.2-2.6,2.6-2.6
		C170.4,15.7,171.6,16.9,171.6,18.3"/>
	<path id="Tracé_61" class="st1" d="M177.5,18.3c0,1.4-1.2,2.6-2.6,2.6c-1.4,0-2.6-1.2-2.6-2.6c0,0,0,0,0,0c0-1.4,1.2-2.6,2.6-2.6
		c0,0,0,0,0,0C176.3,15.7,177.5,16.9,177.5,18.3"/>
	<path id="Tracé_62" class="st3" d="M177.5,28.3c0,1.4-1.2,2.6-2.6,2.6c-1.4,0-2.6-1.2-2.6-2.6c0,0,0,0,0,0c0-1.4,1.2-2.6,2.6-2.6
		c0,0,0,0,0,0C176.3,25.7,177.5,26.9,177.5,28.3"/>
	<path id="Tracé_63" class="st3" d="M183.4,18.3c0,1.4-1.2,2.6-2.6,2.6c-1.4,0-2.6-1.2-2.6-2.6c0,0,0,0,0,0c0-1.4,1.2-2.6,2.6-2.6
		c0,0,0,0,0,0C182.2,15.7,183.4,16.9,183.4,18.3"/>
	<path id="Tracé_64" class="st4" d="M189.2,18.6c0,1.4-1.2,2.6-2.6,2.6c-1.4,0-2.6-1.2-2.6-2.6c0-1.4,1.2-2.6,2.6-2.6
		C188,16,189.2,17.1,189.2,18.6"/>
	<path id="Tracé_65" class="st4" d="M183.3,28.4c0,1.4-1.2,2.6-2.6,2.6c-1.4,0-2.6-1.2-2.6-2.6s1.2-2.6,2.6-2.6
		C182.1,25.8,183.3,26.9,183.3,28.4"/>
	<path id="Tracé_66" class="st4" d="M186.3,23.4c0,1.4-1.2,2.6-2.6,2.6c-1.4,0-2.6-1.2-2.6-2.6s1.2-2.6,2.6-2.6
		C185.1,20.8,186.3,22,186.3,23.4"/>
	<path id="Tracé_67" class="st1" d="M177.8,10.1c-0.1,0-0.2,0-0.3-0.1c-0.3-0.2-0.5-0.6-0.3-0.9c0.5-0.9,0.9-1.9,1.1-3l0-0.2
		l-0.2,0c-0.4,0.1-0.7,0.1-1.1,0.1c-0.7,0-1.3-0.1-1.9-0.4c-2-1-2.4-2.9-1.8-4.2c0.3-0.6,0.8-1.1,1.5-1.3c0.3-0.1,0.6-0.2,0.9-0.2
		c0.5,0,0.9,0.1,1.4,0.3c1.1,0.4,2,1.3,2.4,2.4c0.1,0.4,0.2,0.8,0.3,1.2l0,0.2l0.2-0.1c0.4-0.2,0.8-0.5,1.1-0.8
		c0.1-0.2,0.3-0.3,0.5-0.3c0.1,0,0.3,0,0.4,0.1c0.3,0.2,0.4,0.6,0.1,0.9c-0.6,0.7-1.4,1.2-2.3,1.5l-0.1,0l0,0.1
		c-0.2,1.4-0.6,2.8-1.3,4.1C178.3,10,178.1,10.1,177.8,10.1 M175.7,1.3c-0.5,0-1,0.2-1.2,0.7c-0.3,0.7,0,1.8,1.2,2.4
		c0.4,0.2,0.9,0.3,1.3,0.3c0.4,0,0.8-0.1,1.3-0.2l0.1,0l0-0.1c0-0.4-0.1-0.8-0.3-1.2c-0.3-0.8-0.8-1.4-1.6-1.7
		C176.3,1.4,176,1.3,175.7,1.3"/>
	<rect id="Rectangle_3" x="192.8" y="27.4" class="st5" width="1.2" height="10.3"/>
	<path id="Tracé_68" class="st5" d="M196.9,32.5L196.9,32.5c-0.1-2.9,2.1-5.2,5-5.3c0.1,0,0.1,0,0.2,0c1.4-0.1,2.8,0.4,3.8,1.4
		l-0.7,0.9c-0.8-0.8-2-1.2-3.1-1.2c-2.2,0.1-4,1.9-3.9,4.1c0,0,0,0.1,0,0.1v0c-0.2,2.2,1.5,4.1,3.7,4.3c0.1,0,0.3,0,0.4,0
		c1.1,0,2.1-0.4,3-1v-2.5H202v-1h4.2v4.1c-1.1,1-2.6,1.6-4.1,1.6c-2.8,0.1-5.1-2.1-5.2-4.8C196.9,32.8,196.9,32.7,196.9,32.5"/>
	<path id="Tracé_69" class="st5" d="M209.3,27.4h1.1l6.5,8.2v-8.2h1.1v10.3h-0.9l-6.6-8.4v8.4h-1.1L209.3,27.4z"/>
	<path id="Tracé_70" class="st5" d="M220.9,32.5L220.9,32.5c-0.1-2.9,2.2-5.3,5.1-5.3c0,0,0.1,0,0.1,0c2.8,0,5.2,2.2,5.2,5.1
		c0,0.1,0,0.1,0,0.2v0c0.1,2.9-2.2,5.2-5.1,5.3c0,0-0.1,0-0.1,0c-2.8,0-5.2-2.2-5.2-5.1C220.9,32.7,220.9,32.6,220.9,32.5
		 M230.1,32.5L230.1,32.5c0.1-2.3-1.7-4.2-3.9-4.3c0,0-0.1,0-0.1,0c-2.2,0-4,1.8-4,4c0,0.1,0,0.1,0,0.2v0c-0.1,2.2,1.7,4.1,3.9,4.2
		c0,0,0.1,0,0.1,0c2.2,0,4-1.8,4-4C230.1,32.6,230.1,32.6,230.1,32.5"/>
	<path id="Tracé_71" class="st5" d="M234.2,27.4h4.4c1-0.1,1.9,0.3,2.7,0.9c0.4,0.4,0.7,1,0.7,1.6v0c0,1.1-0.6,2-1.6,2.4
		c1.2,0.4,2.2,1.1,2.2,2.5v0c0,1.8-1.5,2.8-3.7,2.8h-4.6L234.2,27.4z M240.8,30.1c0-1-0.8-1.7-2.3-1.7h-3.1v3.5h3
		C239.8,31.9,240.8,31.3,240.8,30.1L240.8,30.1z M238.6,33h-3.2v3.6h3.4c1.6,0,2.5-0.7,2.5-1.8v0C241.3,33.6,240.4,33,238.6,33"/>
	<path id="Tracé_72" class="st5" d="M245.3,27.4h1.2v9.2h5.8v1.1h-6.9V27.4z"/>
	<path id="Tracé_73" class="st5" d="M254.8,27.4h7.4v1.1h-6.3v3.5h5.6V33h-5.6v3.6h6.3v1.1h-7.5V27.4z"/>
	<path id="Tracé_24" class="st5" d="M1.2,10.9h5.1c3,0,5,1.6,5,4.2v0c0,2.8-2.2,4.3-5.1,4.3H4.5v3.4H1.2V10.9z M6.1,16.8
		c1.2,0,1.9-0.6,1.9-1.6v0c0-1-0.7-1.6-1.9-1.6H4.5v3.2H6.1z"/>
	<path id="Tracé_25" class="st5" d="M13.2,10.9h3.3v9.1h5.8v2.9h-9.1V10.9z"/>
	<path id="Tracé_26" class="st5" d="M28.4,10.8h3.2l5.1,12h-3.6l-0.9-2.2h-4.6l-0.9,2.2h-3.5L28.4,10.8z M31.3,18.1l-1.3-3.4
		l-1.3,3.4L31.3,18.1z"/>
	<path id="Tracé_35" class="st5" d="M1,27.4h4c3.6,0,5.8,2.1,5.8,5.1v0c0,3-2.2,5.2-5.8,5.2H1V27.4z M3.9,29.9v5.2H5
		c1.7,0,2.8-0.9,2.8-2.6v0c0-1.4-1-2.6-2.4-2.6c-0.1,0-0.3,0-0.4,0L3.9,29.9z"/>
	<path id="Tracé_36" class="st6" d="M12.7,27.4h8.3v2.4h-5.4v1.6h4.9v2.2h-4.9v1.6H21v2.4h-8.3V27.4z M17.3,24.3l2.7,0.8l-2.2,1.6
		h-2.1L17.3,24.3z"/>
	<path id="Tracé_37" class="st5" d="M22.9,27.4h4.4c2.6,0,4.2,1.3,4.2,3.6v0c0,2.4-1.9,3.7-4.4,3.7h-1.4v2.9h-2.8V27.4z M27.1,32.5
		c1,0,1.6-0.5,1.6-1.3v0c0-0.9-0.6-1.3-1.6-1.3h-1.3v2.7L27.1,32.5z"/>
</g>
</svg>
